<svg width="26" height="28" viewBox="0 0 26 28" fill="none" xmlns="http://www.w3.org/2000/svg">
<g clip-path="url(#clip0_478_37)">
<path d="M5.2072 11.8289V15.5448L6.65887 15.6256M5.2072 11.8289L11.3739 4.97585C11.0773 5.05918 10.7861 5.16584 10.5027 5.29532C9.723 5.65146 9.01785 6.17292 8.42922 6.82866C8.34685 6.92041 8.267 7.01453 8.18974 7.11089C7.71487 7.70318 7.33793 8.38009 7.07635 9.11218C6.77251 9.96254 6.63051 10.87 6.65879 11.7806C6.65881 11.7815 6.65884 11.7824 6.65887 11.7833M5.2072 11.8289L6.65887 11.7833M5.2072 11.8289L6.65887 11.7833M6.65887 15.6256H5.2072C5.11675 16.9301 4.78526 18.202 4.2322 19.3667C4.21973 19.3878 4.2072 19.4088 4.1946 19.4298L5.18279 20.0089H5.31849H5.54807C5.55031 20.0042 5.55256 19.9994 5.5548 19.9947C6.18386 18.6662 6.55749 17.2142 6.65287 15.7258C6.65501 15.6924 6.65701 15.659 6.65887 15.6256ZM6.65887 15.6256V11.7833M23.0028 23.3624L22.9212 23.2867L23.0028 23.3624ZM23.0028 23.3624L23.5134 23.8366L23.0028 23.3624ZM5.76558 8.64384C5.39767 9.63439 5.20517 10.6993 5.2072 11.7833L11.3739 3.54631C10.8767 3.66138 10.3934 3.82798 9.93035 4.0424C8.98864 4.47851 8.13067 5.11248 7.40958 5.91335C7.31145 6.02235 7.21585 6.13443 7.12292 6.24953C6.54449 6.96592 6.08777 7.77637 5.76558 8.64384ZM4.14076 19.5186L5.13069 20.0089H3.82269C3.93268 19.8486 4.03875 19.6852 4.14076 19.5186Z" fill="#F8F8F8" stroke="white" stroke-width="5"/>
<path d="M13 26.6622C13.455 26.651 13.8916 26.4668 14.2326 26.1422C14.5736 25.8177 14.797 25.3738 14.8633 24.8889H11.0645C11.1327 25.3869 11.3666 25.8413 11.7226 26.1675C12.0787 26.4937 12.5326 26.6695 13 26.6622Z" fill="#F8F8F8"/>
</g>
<defs>
<clipPath id="clip0_478_37">
<rect width="26" height="28" fill="white"/>
</clipPath>
</defs>
</svg>
