<svg width="54" height="38" viewBox="0 0 54 38" fill="none" xmlns="http://www.w3.org/2000/svg">
<path d="M53.2354 20.5056C53.7451 21.7718 54 23.0874 54 24.4524V26.5891C54 27.3408 53.9121 28.0629 53.7364 28.7554C53.5606 29.4478 53.2969 30.0907 52.9454 30.6843C52.5938 31.2778 52.172 31.8119 51.6798 32.2867C51.1876 32.7615 50.6427 33.1572 50.0451 33.4737C49.7814 34.1662 49.4387 34.7893 49.0168 35.3433C48.595 35.8972 48.1116 36.3621 47.5667 36.738C47.0218 37.1139 46.4417 37.4205 45.8265 37.6579C45.2113 37.8953 44.5609 38.0042 43.8754 37.9844C42.6626 37.9844 41.5376 37.6481 40.5006 36.9754C39.4635 36.3028 38.6374 35.3729 38.0221 34.1859H19.3549C18.7397 35.3729 17.9136 36.3028 16.8765 36.9754C15.8394 37.6481 14.7145 37.9844 13.5017 37.9844C12.2888 37.9844 11.1639 37.6481 10.1268 36.9754C9.08972 36.3028 8.26358 35.3729 7.64837 34.1859H3.37706C2.90247 34.1859 2.46304 34.087 2.05875 33.8892C1.65447 33.6913 1.30293 33.4243 1.00411 33.088C0.705294 32.7516 0.45921 32.3461 0.265858 31.8713C0.0725068 31.3965 -0.0153802 30.9019 0.00219718 30.3875V22.7906C0.00219718 21.2277 0.265858 19.7539 0.793181 18.369C1.3205 16.9842 2.04118 15.7774 2.9552 14.7486C3.86923 13.7199 4.94145 12.8989 6.17187 12.2856C7.40229 11.6723 8.7206 11.3755 10.1268 11.3953H11.1023L19.7504 1.66182C20.225 1.12766 20.7699 0.722099 21.3851 0.445129C22.0003 0.16816 22.6507 0.0197835 23.3362 0H47.2503V3.79844H46.4857L53.2354 20.5056ZM13.5017 34.1859C13.9762 34.1859 14.4157 34.087 14.82 33.8892C15.2242 33.6913 15.5758 33.4243 15.8746 33.088C16.1734 32.7516 16.4195 32.3461 16.6129 31.8713C16.8062 31.3965 16.8941 30.9019 16.8765 30.3875C16.8765 29.8533 16.7886 29.3588 16.6129 28.9037C16.4371 28.4487 16.1998 28.053 15.901 27.7167C15.6022 27.3804 15.2418 27.1034 14.82 26.8858C14.3981 26.6682 13.9587 26.5693 13.5017 26.5891C13.0271 26.5891 12.5876 26.688 12.1833 26.8858C11.7791 27.0836 11.4275 27.3507 11.1287 27.687C10.8299 28.0234 10.5838 28.4289 10.3904 28.9037C10.1971 29.3785 10.1092 29.8731 10.1268 30.3875C10.1268 30.9217 10.2147 31.4162 10.3904 31.8713C10.5662 32.3263 10.8035 32.722 11.1023 33.0583C11.4012 33.3946 11.7615 33.6716 12.1833 33.8892C12.6052 34.1068 13.0446 34.2057 13.5017 34.1859ZM30.376 3.79844H23.3362C22.8792 3.79844 22.4837 3.98638 22.1497 4.36227L15.901 11.3953H30.376V3.79844ZM33.7508 11.3953H45.8529L43.2426 4.89642C43.102 4.5601 42.8911 4.29303 42.6099 4.09519C42.3286 3.89736 42.021 3.79844 41.687 3.79844H33.7508V11.3953ZM43.8754 34.1859C44.35 34.1859 44.7895 34.087 45.1937 33.8892C45.598 33.6913 45.9496 33.4243 46.2484 33.088C46.5472 32.7516 46.7933 32.3461 46.9866 31.8713C47.18 31.3965 47.2679 30.9019 47.2503 30.3875C47.2503 29.8533 47.1624 29.3588 46.9866 28.9037C46.8109 28.4487 46.5736 28.053 46.2747 27.7167C45.9759 27.3804 45.6156 27.1034 45.1937 26.8858C44.7719 26.6682 44.3324 26.5693 43.8754 26.5891C43.4008 26.5891 42.9614 26.688 42.5571 26.8858C42.1528 27.0836 41.8013 27.3507 41.5025 27.687C41.2037 28.0234 40.9576 28.4289 40.7642 28.9037C40.5709 29.3785 40.483 29.8731 40.5006 30.3875C40.5006 30.9217 40.5885 31.4162 40.7642 31.8713C40.94 32.3263 41.1773 32.722 41.4761 33.0583C41.7749 33.3946 42.1353 33.6716 42.5571 33.8892C42.979 34.1068 43.4184 34.2057 43.8754 34.1859Z" fill="#85B6FF"/>
</svg>
