<svg width="176" height="29" viewBox="0 0 176 29" fill="none" xmlns="http://www.w3.org/2000/svg">
<path d="M148.867 25.8646L151.258 17.6056L143.24 12.0505L153.832 11.3158L157.952 3.52698L162.071 11.3158L172.663 12.0505L164.645 17.6056L167.036 25.8646L157.952 21.4853L148.867 25.8646Z" fill="#FFE600"/>
<path d="M78.2538 25.8646L80.6443 17.6056L72.6267 12.0505L83.2188 11.3158L87.3379 3.52698L91.457 11.3158L102.049 12.0505L94.0315 17.6056L96.4221 25.8646L87.3379 21.4853L78.2538 25.8646Z" fill="#FFE600"/>
<path d="M113.561 26.6487L115.951 18.3896L107.934 12.8346L118.526 12.0998L122.645 4.31104L126.764 12.0998L137.356 12.8346L129.338 18.3896L131.729 26.6487L122.645 22.2693L113.561 26.6487Z" fill="#FFE600"/>
<path d="M45.7343 25.8646L48.1249 17.6056L40.1073 12.0505L50.6993 11.3158L54.8185 3.52698L58.9376 11.3158L69.5297 12.0505L61.5121 17.6056L63.9026 25.8646L54.8185 21.4853L45.7343 25.8646Z" fill="#FFE600"/>
<path d="M8.56925 25.8646L10.9598 17.6056L2.94223 12.0505L13.5343 11.3158L17.6534 3.52698L21.7725 11.3158L32.3646 12.0505L24.347 17.6056L26.7376 25.8646L17.6534 21.4853L8.56925 25.8646Z" fill="#FFE600"/>
</svg>
