<svg width="12" height="13" viewBox="0 0 12 13" fill="none" xmlns="http://www.w3.org/2000/svg">
<path d="M0.5595 11.9905V11.1354H1.4775V11.9905H2.033V9.94781H1.4775V10.7321H0.5595V9.94781H0V11.9905H0.5595ZM3.9715 9.91406C3.244 9.91406 2.7725 10.3722 2.7725 10.9835C2.7725 11.5661 3.2 12.0234 3.9315 12.0234C4.6515 12.0234 5.1425 11.6172 5.1425 10.9481C5.1425 10.3836 4.7285 9.91406 3.9715 9.91406ZM3.961 11.6568C3.588 11.6568 3.3615 11.375 3.3615 10.9747C3.3615 10.5785 3.5805 10.2807 3.957 10.2807C4.3425 10.2807 4.5535 10.5962 4.5535 10.9628C4.5535 11.3603 4.338 11.6568 3.961 11.6568ZM5.585 10.3351H6.247V11.9905H6.8055V10.3351H7.4795V9.94781H5.585V10.3351ZM8.702 11.1261H9.6085V10.7502H8.702V10.3271H9.663V9.94781H8.1405V11.9905H9.714V11.6113H8.702V11.1261ZM11.0195 9.94781H10.46V11.9905H12V11.6024H11.0195V9.94781ZM7 4.21875H5C4.7245 4.21875 4.5 4.40859 4.5 4.64062V8.01562C4.5 8.24808 4.7245 8.4375 5 8.4375H7C7.2745 8.4375 7.5 8.24808 7.5 8.01562V4.64062C7.5 4.40859 7.2745 4.21875 7 4.21875ZM5 2.53125C5.2745 2.53125 5.5 2.34141 5.5 2.10938V0.421875C5.5 0.189844 5.2745 0 5 0C4.7245 0 4.5 0.189844 4.5 0.421875V2.10938C4.5 2.34141 4.7245 2.53125 5 2.53125ZM7 0C6.7245 0 6.5 0.189844 6.5 0.421875V2.10938C6.5 2.34141 6.7245 2.53125 7 2.53125C7.2745 2.53125 7.5 2.34141 7.5 2.10938V0.421875C7.5 0.189844 7.2745 0 7 0ZM1.5 5.90625H3C3.2745 5.90625 3.5 5.71683 3.5 5.48438V4.64062C3.5 4.40859 3.2745 4.21875 3 4.21875H1.5C1.2245 4.21875 1 4.40859 1 4.64062V5.48438C1 5.71641 1.2245 5.90625 1.5 5.90625ZM3.5 8.01562V7.17188C3.5 6.94027 3.2745 6.75 3 6.75H1.5C1.2245 6.75 1 6.94027 1 7.17188V8.01562C1 8.24808 1.2245 8.4375 1.5 8.4375H3C3.2745 8.4375 3.5 8.24808 3.5 8.01562ZM9 5.90625H10.5C10.7745 5.90625 11 5.71683 11 5.48438V4.64062C11 4.40859 10.7745 4.21875 10.5 4.21875H9C8.7245 4.21875 8.5 4.40859 8.5 4.64062V5.48438C8.5 5.71641 8.7245 5.90625 9 5.90625ZM9 8.4375H10.5C10.7745 8.4375 11 8.24808 11 8.01562V7.17188C11 6.94027 10.7745 6.75 10.5 6.75H9C8.7245 6.75 8.5 6.94027 8.5 7.17188V8.01562C8.5 8.24808 8.7245 8.4375 9 8.4375Z" fill="white"/>
</svg>
