<svg width="32" height="27" viewBox="0 0 32 27" fill="none" xmlns="http://www.w3.org/2000/svg">
<path d="M31.5 25.3125H28.5V17.6167C30.328 18.4414 30.383 20.1133 30.383 20.1133C30.7315 17.7846 29.462 16.8889 28.4715 16.543C28.4566 16.4484 28.4352 16.3546 28.4075 16.262C30.4175 14.8795 32 15.4545 32 15.4545C30.201 13.6207 28.666 14.4285 27.793 15.247C27.5122 14.9642 27.1614 14.7368 26.7653 14.5807C26.3691 14.4247 25.9372 14.3438 25.5 14.3438H23V10.9688C23 9.57319 21.6545 8.4375 20 8.4375H19.5V5.90625C19.5 5.45189 19.2345 4.91062 18.8535 4.58958L18.0605 3.92006C17.68 3.59944 17.038 3.375 16.5 3.375V2.76666C17.833 3.41339 18.166 2.1195 19.5 2.76666V0.608766C18.166 -0.0379688 17.833 1.25592 16.5 0.608766V0.421875C16.5 0.189844 16.2745 0 16 0C15.7245 0 15.5 0.189844 15.5 0.421875V3.375C14.962 3.375 14.32 3.59944 13.9395 3.92006L13.1465 4.58958C12.7655 4.91062 12.5 5.45189 12.5 5.90625V8.4375H12C10.3455 8.4375 9 9.57319 9 10.9688V14.3438H6.5C6.06266 14.3439 5.63065 14.4248 5.23434 14.5808C4.83802 14.7369 4.48702 14.9642 4.206 15.247C3.334 14.4285 1.7985 13.6202 0 15.4545C0 15.4545 1.582 14.8795 3.593 16.2629C3.56524 16.3551 3.54387 16.4486 3.529 16.543C2.5385 16.8889 1.2685 17.7846 1.6175 20.1133C1.6175 20.1133 1.672 18.4406 3.5005 17.6167V25.3125H0.5C0.2245 25.3125 0 25.5028 0 25.7344V26.5781C0 26.8106 0.2245 27 0.5 27H31.5C31.7745 27 32 26.8106 32 26.5781V25.7344C32 25.5028 31.7745 25.3125 31.5 25.3125ZM27.014 17.3133C27.0975 17.2935 27.172 17.2703 27.2605 17.253C27.4285 17.2796 27.5835 17.3142 27.734 17.3517C27.7715 17.6196 27.8135 17.9605 27.851 18.3849H26.9875C27.001 18.0385 27.0095 17.6791 27.014 17.3133ZM26.9835 18.5321C27.362 18.9367 27.68 18.7958 27.8705 18.6228C27.899 18.9755 27.9225 19.3742 27.94 19.8184H26.9125C26.9405 19.4054 26.965 18.9793 26.9835 18.5321ZM26.5 17.4509C26.5043 17.4498 26.5085 17.4484 26.5125 17.4466C26.5 18.2136 26.4675 18.9388 26.424 19.6193C26.3817 19.5555 26.3202 19.5023 26.2458 19.4649C26.1714 19.4275 26.0866 19.4073 26 19.4062H24.1805C24.2955 19.0114 24.5555 18.5528 25.0965 18.1406H26C26.2745 18.1406 26.5 17.9512 26.5 17.7188V17.4509ZM5.5 17.4517V17.7188C5.5 17.9512 5.7245 18.1406 6 18.1406H6.9035C7.444 18.5528 7.704 19.0114 7.819 19.4062H6C5.91337 19.4072 5.82856 19.4274 5.75405 19.4647C5.67955 19.502 5.61798 19.5552 5.5755 19.6189C5.5315 18.9392 5.5 18.214 5.487 17.4471L5.5 17.4517ZM4.2655 17.3521C4.4155 17.3142 4.5705 17.2796 4.738 17.2534C4.827 17.2716 4.9015 17.2939 4.9855 17.3138C4.9905 17.6795 4.9985 18.039 5.011 18.3857H4.148C4.186 17.9609 4.2275 17.62 4.2655 17.3521ZM4.129 18.6228C4.3205 18.7958 4.6385 18.9367 5.0165 18.5313C5.034 18.9789 5.0585 19.4046 5.0875 19.8184H4.0585C4.076 19.3742 4.1005 18.9755 4.129 18.6228ZM4.051 20.026C4.268 20.2049 4.6445 20.3753 5.1 20.0062C5.1315 20.4436 5.1675 20.8575 5.2065 21.2503H4.035C4.034 20.8136 4.039 20.4031 4.051 20.026ZM4.036 21.4464C4.267 21.6435 4.697 21.846 5.214 21.3342C5.264 21.8228 5.317 22.2737 5.3705 22.683H4.068C4.05116 22.2709 4.04049 21.8587 4.036 21.4464ZM4.0735 22.8036C4.2885 22.9939 4.7805 23.2989 5.397 22.8804C5.431 23.1318 5.466 23.3609 5.4995 23.5773V23.625C5.4995 23.6579 5.513 23.6874 5.522 23.7191C5.545 23.8608 5.566 23.9925 5.588 24.1161H4.1515C4.11869 23.6789 4.09269 23.2414 4.0735 22.8036ZM4.256 25.3125C4.217 24.9269 4.1845 24.5552 4.157 24.1937C4.348 24.3806 4.9055 24.8016 5.612 24.2523C5.732 24.9328 5.8215 25.3125 5.8215 25.3125H4.256ZM11 20.2766L10.382 20.6719L10.6165 20.0285L10 19.6294L10.7625 19.6269L11 18.9844L11.2375 19.6269L12 19.6294L11.384 20.0281L11.618 20.6719L11 20.2766ZM12 26.5781L12.6665 26.1562H19.3335L20 26.5781H12ZM14.118 20.6719L13.5 20.2766L12.882 20.6719L13.1165 20.0285L12.5 19.6294L13.2625 19.6269L13.5 18.9844L13.7375 19.6269L14.5 19.6294L13.884 20.0281L14.118 20.6719ZM14 21.0938V25.3125H12.5V21.0938H14ZM16.618 20.6719L16 20.2766L15.382 20.6719L15.6165 20.0285L15 19.6294L15.7625 19.6269L16 18.9844L16.2375 19.6269L17 19.6294L16.384 20.0281L16.618 20.6719ZM16.5 21.0938V25.3125H15.5V21.0938H16.5ZM19.118 20.6719L18.5 20.2766L17.882 20.6719L18.1165 20.0285L17.5 19.6294L18.2625 19.6269L18.5 18.9844L18.7375 19.6269L19.5 19.6294L18.884 20.0281L19.118 20.6719ZM19.5 21.0938V25.3125H18V21.0938H19.5ZM20.382 20.6719L20.6165 20.0285L20 19.6294L20.7625 19.6269L21 18.9844L21.2375 19.6269L22 19.6294L21.384 20.0281L21.618 20.6719L21 20.2766L20.382 20.6719ZM26 22.3594H24C23.7245 22.3594 23.5 22.5496 23.5 22.7812V23.625C23.5 23.8575 23.7245 24.0469 24 24.0469H25.9165C25.8507 24.4427 25.7744 24.8373 25.6875 25.2302L25.6675 25.3125H21.5V21.0938H22.5V18.5625H9.5V21.0938H10.5V25.3125H6.331L6.3115 25.2302C6.2246 24.8373 6.14842 24.4428 6.083 24.0469H8C8.2745 24.0469 8.5 23.8575 8.5 23.625V22.7812C8.5 22.5496 8.2745 22.3594 8 22.3594H6C5.94448 22.3606 5.88964 22.37 5.838 22.3872C5.77883 21.9222 5.72716 21.4566 5.683 20.9904C5.77067 21.0556 5.8831 21.0923 6 21.0938H8C8.2745 21.0938 8.5 20.9043 8.5 20.6719V19.8281C8.5 19.6535 8.371 19.5029 8.191 19.4392C8.2795 18.9367 8.2015 18.5055 8.015 18.1381C8.282 18.1309 8.5 17.9461 8.5 17.7188V16.875C8.5 16.6434 8.2745 16.4531 8 16.4531H6C5.9292 16.4534 5.85936 16.467 5.7955 16.4928C5.7405 16.473 5.6845 16.4523 5.632 16.4341C8.0705 14.5011 10 15.949 10 15.949C9.7446 15.6572 9.43751 15.4004 9.0895 15.1875H10V10.9688C10 10.0406 10.8995 9.28125 12 9.28125H13.5V5.90625C13.5 5.67422 13.659 5.35022 13.8535 5.18569L14.6465 4.51702C14.841 4.35291 15.2245 4.21875 15.5 4.21875H16.5C16.7745 4.21875 17.159 4.35291 17.3535 4.51744L18.1465 5.18611C18.341 5.35022 18.5 5.67422 18.5 5.90625V9.28125H20C21.0995 9.28125 22 10.0406 22 10.9688V15.1875H22.91C22.562 15.4003 22.2551 15.6572 22 15.949C22 15.949 23.929 14.5011 26.367 16.4341C26.3145 16.4523 26.2585 16.473 26.204 16.4928C26.1403 16.4669 26.0706 16.4534 26 16.4531H24C23.7245 16.4531 23.5 16.6434 23.5 16.875V17.7188C23.5007 17.828 23.5516 17.9327 23.642 18.0109C23.7323 18.0891 23.8551 18.1347 23.9845 18.1381C23.798 18.5055 23.7205 18.9367 23.808 19.4392C23.628 19.5029 23.5 19.6535 23.5 19.8281V20.6719C23.5 20.9043 23.7245 21.0938 24 21.0938H26C26.1166 21.0921 26.2288 21.0557 26.3165 20.9908C26.2722 21.457 26.2207 21.9226 26.162 22.3876C26.1104 22.3702 26.0556 22.3606 26 22.3594ZM27.743 25.3125H26.1775C26.1775 25.3125 26.267 24.9328 26.3865 24.2528C27.0935 24.8016 27.6505 24.3806 27.842 24.1933C27.8145 24.5552 27.782 24.9269 27.743 25.3125ZM27.8475 24.1161H26.411L26.4755 23.7254C26.486 23.6925 26.5 23.6604 26.5 23.625V23.5731C26.5335 23.358 26.568 23.1297 26.6025 22.8791C27.2185 23.2985 27.7105 22.9935 27.9255 22.8032C27.907 23.2221 27.882 23.6579 27.8475 24.1161ZM27.931 22.6834H26.628C26.6825 22.2737 26.736 21.8232 26.785 21.3338C27.3015 21.8455 27.732 21.6443 27.9625 21.4477C27.9595 21.8371 27.9485 22.2488 27.931 22.6834ZM26.793 21.2503C26.832 20.8571 26.8685 20.4436 26.9005 20.0053C27.355 20.3745 27.732 20.2049 27.9485 20.0268C27.96 20.4036 27.965 20.8136 27.9635 21.2503H26.793Z" fill="white"/>
</svg>
