<svg width="19" height="23" viewBox="0 0 19 23" fill="none" xmlns="http://www.w3.org/2000/svg">
<path d="M15.6797 9.1588V2.87501H14.1118V4.79168H4.70396V2.87501H3.13599V9.1588C2.20305 9.82293 1.56803 11.0448 1.56803 12.4583V16.2917C1.56803 16.5458 1.65062 16.7896 1.79765 16.9693C1.94467 17.149 2.14408 17.25 2.35201 17.25H3.13599V21.0833H4.70396V17.25H14.1118V21.0833H15.6797V17.25H16.4637C16.6716 17.25 16.871 17.149 17.0181 16.9693C17.1651 16.7896 17.2477 16.5458 17.2477 16.2917V12.4583C17.2477 11.0448 16.6119 9.82293 15.6797 9.1588ZM14.1118 6.70834V8.62501H10.1918V6.70834H14.1118ZM4.70396 6.70834H8.62388V8.62501H4.70396V6.70834ZM15.6797 15.3333H3.13599V12.4583C3.13599 11.4013 3.83923 10.5417 4.70396 10.5417H14.1118C14.9765 10.5417 15.6797 11.4013 15.6797 12.4583V15.3333Z" fill="white"/>
</svg>
