<svg width="33" height="31" viewBox="0 0 33 31" fill="none" xmlns="http://www.w3.org/2000/svg">
<path d="M16.9839 10.2727C17.7734 10.2727 18.5452 10.5063 19.2017 10.9438C19.8581 11.3813 20.3698 12.0032 20.6719 12.7308C20.9741 13.4584 21.0531 14.259 20.8991 15.0314C20.7451 15.8038 20.3649 16.5133 19.8066 17.0701C19.2483 17.627 18.537 18.0062 17.7627 18.1599C16.9883 18.3135 16.1857 18.2347 15.4562 17.9333C14.7268 17.6319 14.1033 17.1215 13.6647 16.4667C13.2261 15.8119 12.9919 15.0421 12.9919 14.2546C12.9919 13.1985 13.4125 12.1857 14.1611 11.439C14.9098 10.6922 15.9251 10.2727 16.9839 10.2727ZM16.9839 8.67999C15.8785 8.67999 14.798 9.00694 13.879 9.61948C12.9599 10.232 12.2436 11.1026 11.8206 12.1213C11.3976 13.1399 11.2869 14.2607 11.5025 15.3421C11.7182 16.4235 12.2505 17.4167 13.0321 18.1964C13.8137 18.976 14.8095 19.5069 15.8936 19.722C16.9777 19.9371 18.1014 19.8267 19.1226 19.4048C20.1438 18.9829 21.0166 18.2683 21.6307 17.3516C22.2448 16.4349 22.5726 15.3571 22.5726 14.2546C22.5726 12.7761 21.9838 11.3582 20.9357 10.3127C19.8876 9.26731 18.4661 8.67999 16.9839 8.67999ZM24.9677 30.9782H23.371V26.9964C23.371 25.9404 22.9504 24.9276 22.2018 24.1808C21.4531 23.4341 20.4378 23.0146 19.379 23.0146H14.5887C13.53 23.0146 12.5146 23.4341 11.766 24.1808C11.0174 24.9276 10.5968 25.9404 10.5968 26.9964V30.9782H9V26.9964C9 25.5179 9.58881 24.1 10.6369 23.0546C11.685 22.0092 13.1065 21.4218 14.5887 21.4218H19.379C20.8613 21.4218 22.2828 22.0092 23.3308 23.0546C24.3789 24.1 24.9677 25.5179 24.9677 26.9964V30.9782ZM24.9677 10.2727H32.9516V11.8655H24.9677V10.2727ZM24.9677 14.2546H32.9516V15.8473H24.9677V14.2546ZM24.9677 18.2364H30.5565V19.8291H24.9677V18.2364Z" fill="white"/>
</svg>
