<svg width="28" height="32" viewBox="0 0 28 32" fill="none" xmlns="http://www.w3.org/2000/svg">
<path d="M6.99996 2.66663H17.5C18.1188 2.66663 18.7123 2.94758 19.1499 3.44767C19.5875 3.94777 19.8333 4.62605 19.8333 5.33329V6.66663C19.8333 7.02025 19.7104 7.35939 19.4916 7.60943C19.2728 7.85948 18.976 7.99996 18.6666 7.99996C18.3572 7.99996 18.0605 7.85948 17.8417 7.60943C17.6229 7.35939 17.5 7.02025 17.5 6.66663V5.33329H6.99996V26.6666H17.5V25.3333C17.5 24.9797 17.6229 24.6405 17.8417 24.3905C18.0605 24.1404 18.3572 24 18.6666 24C18.976 24 19.2728 24.1404 19.4916 24.3905C19.7104 24.6405 19.8333 24.9797 19.8333 25.3333V26.6666C19.8333 27.3739 19.5875 28.0521 19.1499 28.5522C18.7123 29.0523 18.1188 29.3333 17.5 29.3333H6.99996C6.38112 29.3333 5.78763 29.0523 5.35004 28.5522C4.91246 28.0521 4.66663 27.3739 4.66663 26.6666V5.33329C4.66663 4.62605 4.91246 3.94777 5.35004 3.44767C5.78763 2.94758 6.38112 2.66663 6.99996 2.66663Z" fill="white"/>
<path d="M19.5942 21.7267C20.0492 22.2467 20.7842 22.2467 21.2392 21.7267L25.4252 16.9427C25.6439 16.6927 25.7668 16.3536 25.7668 16C25.7668 15.6465 25.6439 15.3074 25.4252 15.0574L21.2392 10.2734C21.0174 10.0443 20.7271 9.92137 20.4283 9.92999C20.1294 9.93861 19.8449 10.0781 19.6335 10.3197C19.4222 10.5613 19.3001 10.8864 19.2925 11.228C19.285 11.5695 19.3926 11.9013 19.593 12.1547L21.7817 14.6667H11.6667C11.3572 14.6667 11.0605 14.8072 10.8417 15.0572C10.6229 15.3073 10.5 15.6464 10.5 16C10.5 16.3537 10.6229 16.6928 10.8417 16.9429C11.0605 17.1929 11.3572 17.3334 11.6667 17.3334H21.7817L19.593 19.8454C19.3752 20.0953 19.253 20.4336 19.2533 20.7863C19.2535 21.139 19.3761 21.4772 19.5942 21.7267Z" fill="white"/>
</svg>
