<svg width="20" height="21" viewBox="0 0 20 21" fill="none" xmlns="http://www.w3.org/2000/svg">
<path d="M19 17.24V10.507C19 9.96445 18.8896 9.42757 18.6756 8.92903C18.4616 8.43048 18.1483 7.98068 17.755 7.607L11.378 1.55C11.0063 1.19689 10.5132 1 10.0005 1C9.48781 1 8.9947 1.19689 8.623 1.55L2.245 7.607C1.85165 7.98068 1.53844 8.43048 1.3244 8.92903C1.11037 9.42757 0.999999 9.96445 1 10.507V17.24C1 17.7704 1.21071 18.2791 1.58579 18.6542C1.96086 19.0293 2.46957 19.24 3 19.24H17C17.5304 19.24 18.0391 19.0293 18.4142 18.6542C18.7893 18.2791 19 17.7704 19 17.24Z" stroke="white" stroke-width="2" stroke-linecap="round" stroke-linejoin="round"/>
<path d="M7 13.24C7 12.7096 7.21071 12.2008 7.58579 11.8258C7.96086 11.4507 8.46957 11.24 9 11.24H11C11.5304 11.24 12.0391 11.4507 12.4142 11.8258C12.7893 12.2008 13 12.7096 13 13.24V19.24H7V13.24Z" stroke="white" stroke-width="2" stroke-linecap="round" stroke-linejoin="round"/>
</svg>
