<svg width="59" height="44" viewBox="0 0 59 44" fill="none" xmlns="http://www.w3.org/2000/svg">
<path d="M15.6104 28.7277L10.4479 23.2859C12.8653 20.797 15.703 18.8253 18.9611 17.3708C22.2176 15.9145 25.7306 15.1864 29.5 15.1864C33.2694 15.1864 36.7832 15.9247 40.0413 17.4011C43.2978 18.8776 46.1347 20.8814 48.5521 23.4124L43.3896 28.7277C41.5868 26.8716 39.4972 25.4162 37.1208 24.3616C34.7444 23.307 32.2042 22.7797 29.5 22.7797C26.7958 22.7797 24.2556 23.307 21.8792 24.3616C19.5028 25.4162 17.4132 26.8716 15.6104 28.7277ZM5.1625 17.9706L0 12.6554C3.76944 8.69002 8.17396 5.58945 13.2135 3.35367C18.2531 1.11789 23.6819 0 29.5 0C35.3181 0 40.7469 1.11789 45.7865 3.35367C50.826 5.58945 55.2306 8.69002 59 12.6554L53.8375 17.9706C50.6826 14.7224 47.0263 12.1804 42.8684 10.3445C38.7089 8.51031 34.2528 7.59322 29.5 7.59322C24.7472 7.59322 20.2911 8.51031 16.1316 10.3445C11.9737 12.1804 8.31736 14.7224 5.1625 17.9706ZM29.5 43.0282L38.1656 34.0429C37.0594 32.904 35.7687 32.0071 34.2937 31.3524C32.8187 30.6994 31.2208 30.3729 29.5 30.3729C27.7792 30.3729 26.1812 30.6994 24.7062 31.3524C23.2312 32.0071 21.9406 32.904 20.8344 34.0429L29.5 43.0282Z" fill="#85B6FF"/>
</svg>
