<svg width="54" height="51" viewBox="0 0 54 51" fill="none" xmlns="http://www.w3.org/2000/svg">
<path d="M44.145 24.0975V17.85C44.145 15.045 41.715 12.75 38.745 12.75H29.7C28.701 12.75 27.756 13.056 27 13.566C26.244 13.056 25.299 12.75 24.3 12.75H15.255C12.285 12.75 9.855 15.045 9.855 17.85V24.0975C8.775 25.2705 8.1 26.8005 8.1 28.4835V38.25H12.15V34.425H41.85V38.25H45.9V28.4835C45.9 26.8005 45.225 25.2705 44.145 24.0975ZM39.825 21.675H29.025V16.575H39.825V21.675ZM14.175 16.575H24.975V21.675H14.175V16.575ZM41.85 30.6H12.15V28.05C12.15 26.6475 13.365 25.5 14.85 25.5H39.15C40.635 25.5 41.85 26.6475 41.85 28.05V30.6ZM48.6 5.1V45.9H5.4V5.1H48.6ZM48.6 0H5.4C2.43 0 0 2.295 0 5.1V45.9C0 48.705 2.43 51 5.4 51H48.6C51.57 51 54 48.705 54 45.9V5.1C54 2.295 51.57 0 48.6 0Z" fill="#85B6FF"/>
</svg>
